<svg id="svgQrWrapper" viewBox="0 0 300 300" xmlns="http://www.w3.org/2000/svg" xmlns:xlink="http://www.w3.org/1999/xlink" width="300" height="300" style="width: 100%; height: 100%; background-color: rgb(255, 255, 255);"><svg><g transform="translate(9, 9)scale(0.95)" fill="none"><svg width="300" height="300"><style>.background-color{ fill: #fff; }.dot-color{ fill: #000000; }.corners-square-color-0-0{ fill: #000000; }.corners-dot-color-0-0{ fill: #000000; }.corners-square-color-1-0{ fill: #000000; }.corners-dot-color-1-0{ fill: #000000; }.corners-square-color-0-1{ fill: #000000; }.corners-dot-color-0-1{ fill: #000000; }</style><defs/><g class="dot-color"><path d="M 5 105v 10h 10a 10 10, 0, 0, 0, -10 -10" transform="rotate(-90,10,110)"/><path d="M 5 115v 10h 10a 10 10, 0, 0, 0, -10 -10" transform="rotate(90,10,120)"/><path d="M 5 145v 10h 10a 10 10, 0, 0, 0, -10 -10" transform="rotate(-90,10,150)"/><rect x="5" y="155" width="10" height="10" transform="rotate(0,10,160)"/><path d="M 5 185v 10h 10a 10 10, 0, 0, 0, -10 -10" transform="rotate(-90,10,190)"/><rect x="5" y="195" width="10" height="10" transform="rotate(0,10,200)"/><path d="M 15 155v 10h 10a 10 10, 0, 0, 0, -10 -10" transform="rotate(90,20,160)"/><rect x="15" y="185" width="10" height="10" transform="rotate(0,20,190)"/><path d="M 15 195v 10h 10a 10 10, 0, 0, 0, -10 -10" transform="rotate(90,20,200)"/><path d="M 25 95v 10h 10a 10 10, 0, 0, 0, -10 -10" transform="rotate(-90,30,100)"/><rect x="25" y="105" width="10" height="10" transform="rotate(0,30,110)"/><path d="M 25 135v 10h 10a 10 10, 0, 0, 0, -10 -10" transform="rotate(-90,30,140)"/><path d="M 25 145v 10h 10a 10 10, 0, 0, 0, -10 -10" transform="rotate(90,30,150)"/><path d="M 25 165v 10h 10a 10 10, 0, 0, 0, -10 -10" transform="rotate(-90,30,170)"/><rect x="25" y="175" width="10" height="10" transform="rotate(0,30,180)"/><path d="M 35 85v 10h 10a 10 10, 0, 0, 0, -10 -10" transform="rotate(-90,40,90)"/><rect x="35" y="95" width="10" height="10" transform="rotate(0,40,100)"/><rect x="35" y="105" width="10" height="10" transform="rotate(0,40,110)"/><rect x="35" y="115" width="10" height="10" transform="rotate(0,40,120)"/><rect x="35" y="165" width="10" height="10" transform="rotate(0,40,170)"/><rect x="35" y="175" width="10" height="10" transform="rotate(0,40,180)"/><rect x="35" y="185" width="10" height="10" transform="rotate(0,40,190)"/><path d="M 35 195v 10h 10a 10 10, 0, 0, 0, -10 -10" transform="rotate(90,40,200)"/><path d="M 45 95v 10h 10a 10 10, 0, 0, 0, -10 -10" transform="rotate(90,50,100)"/><path d="M 45 115v 10h 10a 10 10, 0, 0, 0, -10 -10" transform="rotate(90,50,120)"/><path d="M 45 155v 5a 5 5, 0, 0, 0, 5 5h 5v -5a 5 5, 0, 0, 0, -5 -5" transform="rotate(90,50,160)"/><path d="M 45 175v 10h 10a 10 10, 0, 0, 0, -10 -10" transform="rotate(90,50,180)"/><path d="M 45 205v 10h 10a 10 10, 0, 0, 0, -10 -10" transform="rotate(-90,50,210)"/><path d="M 55 85v 10h 10a 10 10, 0, 0, 0, -10 -10" transform="rotate(-90,60,90)"/><path d="M 55 105v 10h 10a 10 10, 0, 0, 0, -10 -10" transform="rotate(-90,60,110)"/><path d="M 55 135v 10h 10a 10 10, 0, 0, 0, -10 -10" transform="rotate(-90,60,140)"/><rect x="55" y="145" width="10" height="10" transform="rotate(0,60,150)"/><path d="M 55 165v 10h 10a 10 10, 0, 0, 0, -10 -10" transform="rotate(-90,60,170)"/><rect x="55" y="205" width="10" height="10" transform="rotate(0,60,210)"/><rect x="65" y="85" width="10" height="10" transform="rotate(0,70,90)"/><rect x="65" y="105" width="10" height="10" transform="rotate(0,70,110)"/><path d="M 65 125v 10h 10a 10 10, 0, 0, 0, -10 -10" transform="rotate(-90,70,130)"/><path d="M 65 145v 10h 10a 10 10, 0, 0, 0, -10 -10" transform="rotate(90,70,150)"/><rect x="65" y="165" width="10" height="10" transform="rotate(0,70,170)"/><path d="M 65 185v 10h 10a 10 10, 0, 0, 0, -10 -10" transform="rotate(-90,70,190)"/><rect x="65" y="205" width="10" height="10" transform="rotate(0,70,210)"/><rect x="75" y="85" width="10" height="10" transform="rotate(0,80,90)"/><rect x="75" y="95" width="10" height="10" transform="rotate(0,80,100)"/><rect x="75" y="105" width="10" height="10" transform="rotate(0,80,110)"/><rect x="75" y="115" width="10" height="10" transform="rotate(0,80,120)"/><rect x="75" y="125" width="10" height="10" transform="rotate(0,80,130)"/><rect x="75" y="135" width="10" height="10" transform="rotate(0,80,140)"/><path d="M 75 155v 10h 10a 10 10, 0, 0, 0, -10 -10" transform="rotate(-90,80,160)"/><rect x="75" y="165" width="10" height="10" transform="rotate(0,80,170)"/><rect x="75" y="185" width="10" height="10" transform="rotate(0,80,190)"/><rect x="75" y="205" width="10" height="10" transform="rotate(0,80,210)"/><path d="M 85 15v 10h 10a 10 10, 0, 0, 0, -10 -10" transform="rotate(-90,90,20)"/><path d="M 85 25v 10h 10a 10 10, 0, 0, 0, -10 -10" transform="rotate(90,90,30)"/><path d="M 85 65v 5a 5 5, 0, 0, 0, 5 5h 5v -5a 5 5, 0, 0, 0, -5 -5" transform="rotate(90,90,70)"/><rect x="85" y="115" width="10" height="10" transform="rotate(0,90,120)"/><rect x="85" y="125" width="10" height="10" transform="rotate(0,90,130)"/><path d="M 85 135v 10h 10a 10 10, 0, 0, 0, -10 -10" transform="rotate(90,90,140)"/><rect x="85" y="155" width="10" height="10" transform="rotate(0,90,160)"/><rect x="85" y="165" width="10" height="10" transform="rotate(0,90,170)"/><rect x="85" y="175" width="10" height="10" transform="rotate(0,90,180)"/><rect x="85" y="185" width="10" height="10" transform="rotate(0,90,190)"/><rect x="85" y="195" width="10" height="10" transform="rotate(0,90,200)"/><path d="M 85 205v 10h 10a 10 10, 0, 0, 0, -10 -10" transform="rotate(90,90,210)"/><path d="M 85 225v 10h 10a 10 10, 0, 0, 0, -10 -10" transform="rotate(-90,90,230)"/><rect x="85" y="235" width="10" height="10" transform="rotate(0,90,240)"/><path d="M 85 255v 10h 10a 10 10, 0, 0, 0, -10 -10" transform="rotate(-90,90,260)"/><path d="M 95 5v 10h 10a 10 10, 0, 0, 0, -10 -10" transform="rotate(-90,100,10)"/><path d="M 95 15v 10h 10a 10 10, 0, 0, 0, -10 -10" transform="rotate(90,100,20)"/><path d="M 95 45v 10h 10a 10 10, 0, 0, 0, -10 -10" transform="rotate(-90,100,50)"/><path d="M 95 75v 5a 5 5, 0, 0, 0, 5 5h 5v -5a 5 5, 0, 0, 0, -5 -5" transform="rotate(90,100,80)"/><path d="M 95 95v 10h 10a 10 10, 0, 0, 0, -10 -10" transform="rotate(-90,100,100)"/><rect x="95" y="125" width="10" height="10" transform="rotate(0,100,130)"/><path d="M 95 165v 10h 10a 10 10, 0, 0, 0, -10 -10" transform="rotate(90,100,170)"/><rect x="95" y="185" width="10" height="10" transform="rotate(0,100,190)"/><path d="M 95 235v 10h 10a 10 10, 0, 0, 0, -10 -10" transform="rotate(90,100,240)"/><rect x="95" y="255" width="10" height="10" transform="rotate(0,100,260)"/><rect x="95" y="265" width="10" height="10" transform="rotate(0,100,270)"/><rect x="95" y="275" width="10" height="10" transform="rotate(0,100,280)"/><rect x="95" y="285" width="10" height="10" transform="rotate(0,100,290)"/><path d="M 105 25v 10h 10a 10 10, 0, 0, 0, -10 -10" transform="rotate(-90,110,30)"/><rect x="105" y="35" width="10" height="10" transform="rotate(0,110,40)"/><path d="M 105 45v 10h 10a 10 10, 0, 0, 0, -10 -10" transform="rotate(90,110,50)"/><path d="M 105 65v 5a 5 5, 0, 0, 0, 5 5h 5v -5a 5 5, 0, 0, 0, -5 -5" transform="rotate(90,110,70)"/><path d="M 105 95v 10h 10a 10 10, 0, 0, 0, -10 -10" transform="rotate(90,110,100)"/><rect x="105" y="125" width="10" height="10" transform="rotate(0,110,130)"/><path d="M 105 175v 10h 10a 10 10, 0, 0, 0, -10 -10" transform="rotate(-90,110,180)"/><rect x="105" y="185" width="10" height="10" transform="rotate(0,110,190)"/><rect x="105" y="195" width="10" height="10" transform="rotate(0,110,200)"/><path d="M 105 215v 5a 5 5, 0, 0, 0, 5 5h 5v -5a 5 5, 0, 0, 0, -5 -5" transform="rotate(90,110,220)"/><path d="M 105 245v 10h 10a 10 10, 0, 0, 0, -10 -10" transform="rotate(-90,110,250)"/><path d="M 105 285v 10h 10a 10 10, 0, 0, 0, -10 -10" transform="rotate(90,110,290)"/><path d="M 115 15v 10h 10a 10 10, 0, 0, 0, -10 -10" transform="rotate(-90,120,20)"/><rect x="115" y="25" width="10" height="10" transform="rotate(0,120,30)"/><rect x="115" y="35" width="10" height="10" transform="rotate(0,120,40)"/><path d="M 115 75v 10h 10a 10 10, 0, 0, 0, -10 -10" transform="rotate(-90,120,80)"/><rect x="115" y="85" width="10" height="10" transform="rotate(0,120,90)"/><path d="M 115 105v 10h 10a 10 10, 0, 0, 0, -10 -10" transform="rotate(-90,120,110)"/><rect x="115" y="125" width="10" height="10" transform="rotate(0,120,130)"/><rect x="115" y="135" width="10" height="10" transform="rotate(0,120,140)"/><rect x="115" y="185" width="10" height="10" transform="rotate(0,120,190)"/><rect x="115" y="195" width="10" height="10" transform="rotate(0,120,200)"/><rect x="115" y="205" width="10" height="10" transform="rotate(0,120,210)"/><path d="M 115 225v 10h 10a 10 10, 0, 0, 0, -10 -10" transform="rotate(-90,120,230)"/><rect x="115" y="235" width="10" height="10" transform="rotate(0,120,240)"/><rect x="115" y="245" width="10" height="10" transform="rotate(0,120,250)"/><rect x="115" y="255" width="10" height="10" transform="rotate(0,120,260)"/><rect x="125" y="25" width="10" height="10" transform="rotate(0,130,30)"/><path d="M 125 35v 10h 10a 10 10, 0, 0, 0, -10 -10" transform="rotate(90,130,40)"/><path d="M 125 55v 10h 10a 10 10, 0, 0, 0, -10 -10" transform="rotate(-90,130,60)"/><rect x="125" y="65" width="10" height="10" transform="rotate(0,130,70)"/><rect x="125" y="75" width="10" height="10" transform="rotate(0,130,80)"/><rect x="125" y="85" width="10" height="10" transform="rotate(0,130,90)"/><rect x="125" y="95" width="10" height="10" transform="rotate(0,130,100)"/><rect x="125" y="105" width="10" height="10" transform="rotate(0,130,110)"/><path d="M 125 115v 10h 10a 10 10, 0, 0, 0, -10 -10" transform="rotate(90,130,120)"/><rect x="125" y="135" width="10" height="10" transform="rotate(0,130,140)"/><rect x="125" y="145" width="10" height="10" transform="rotate(0,130,150)"/><path d="M 125 155v 10h 10a 10 10, 0, 0, 0, -10 -10" transform="rotate(90,130,160)"/><rect x="125" y="205" width="10" height="10" transform="rotate(0,130,210)"/><rect x="125" y="215" width="10" height="10" transform="rotate(0,130,220)"/><rect x="125" y="225" width="10" height="10" transform="rotate(0,130,230)"/><rect x="125" y="255" width="10" height="10" transform="rotate(0,130,260)"/><rect x="125" y="265" width="10" height="10" transform="rotate(0,130,270)"/><path d="M 125 275v 10h 10a 10 10, 0, 0, 0, -10 -10" transform="rotate(90,130,280)"/><path d="M 135 25v 10h 10a 10 10, 0, 0, 0, -10 -10" transform="rotate(90,140,30)"/><path d="M 135 55v 10h 10a 10 10, 0, 0, 0, -10 -10" transform="rotate(90,140,60)"/><path d="M 135 125v 10h 10a 10 10, 0, 0, 0, -10 -10" transform="rotate(-90,140,130)"/><path d="M 135 145v 10h 10a 10 10, 0, 0, 0, -10 -10" transform="rotate(90,140,150)"/><path d="M 135 165v 10h 10a 10 10, 0, 0, 0, -10 -10" transform="rotate(-90,140,170)"/><rect x="135" y="175" width="10" height="10" transform="rotate(0,140,180)"/><rect x="135" y="185" width="10" height="10" transform="rotate(0,140,190)"/><rect x="135" y="195" width="10" height="10" transform="rotate(0,140,200)"/><path d="M 135 205v 10h 10a 10 10, 0, 0, 0, -10 -10" transform="rotate(90,140,210)"/><path d="M 135 225v 10h 10a 10 10, 0, 0, 0, -10 -10" transform="rotate(90,140,230)"/><rect x="135" y="255" width="10" height="10" transform="rotate(0,140,260)"/><path d="M 135 285v 10h 10a 10 10, 0, 0, 0, -10 -10" transform="rotate(-90,140,290)"/><path d="M 145 5v 10h 10a 10 10, 0, 0, 0, -10 -10" transform="rotate(-90,150,10)"/><path d="M 145 15v 10h 10a 10 10, 0, 0, 0, -10 -10" transform="rotate(90,150,20)"/><path d="M 145 45v 10h 10a 10 10, 0, 0, 0, -10 -10" transform="rotate(-90,150,50)"/><path d="M 145 65v 5a 5 5, 0, 0, 0, 5 5h 5v -5a 5 5, 0, 0, 0, -5 -5" transform="rotate(90,150,70)"/><path d="M 145 95v 10h 10a 10 10, 0, 0, 0, -10 -10" transform="rotate(-90,150,100)"/><path d="M 145 125v 10h 10a 10 10, 0, 0, 0, -10 -10" transform="rotate(90,150,130)"/><path d="M 145 155v 10h 10a 10 10, 0, 0, 0, -10 -10" transform="rotate(-90,150,160)"/><path d="M 145 165v 10h 10a 10 10, 0, 0, 0, -10 -10" transform="rotate(90,150,170)"/><path d="M 145 195v 10h 10a 10 10, 0, 0, 0, -10 -10" transform="rotate(90,150,200)"/><path d="M 145 215v 5a 5 5, 0, 0, 0, 5 5h 5v -5a 5 5, 0, 0, 0, -5 -5" transform="rotate(90,150,220)"/><rect x="145" y="255" width="10" height="10" transform="rotate(0,150,260)"/><rect x="145" y="265" width="10" height="10" transform="rotate(0,150,270)"/><rect x="145" y="275" width="10" height="10" transform="rotate(0,150,280)"/><path d="M 145 285v 10h 10a 10 10, 0, 0, 0, -10 -10" transform="rotate(90,150,290)"/><rect x="155" y="5" width="10" height="10" transform="rotate(0,160,10)"/><path d="M 155 35v 10h 10a 10 10, 0, 0, 0, -10 -10" transform="rotate(-90,160,40)"/><path d="M 155 45v 10h 10a 10 10, 0, 0, 0, -10 -10" transform="rotate(90,160,50)"/><path d="M 155 75v 10h 10a 10 10, 0, 0, 0, -10 -10" transform="rotate(-90,160,80)"/><rect x="155" y="85" width="10" height="10" transform="rotate(0,160,90)"/><path d="M 155 95v 10h 10a 10 10, 0, 0, 0, -10 -10" transform="rotate(90,160,100)"/><path d="M 155 145v 10h 10a 10 10, 0, 0, 0, -10 -10" transform="rotate(-90,160,150)"/><path d="M 155 155v 10h 10a 10 10, 0, 0, 0, -10 -10" transform="rotate(90,160,160)"/><path d="M 155 175v 10h 10a 10 10, 0, 0, 0, -10 -10" transform="rotate(-90,160,180)"/><path d="M 155 205v 10h 10a 10 10, 0, 0, 0, -10 -10" transform="rotate(-90,160,210)"/><path d="M 155 225v 10h 10a 10 10, 0, 0, 0, -10 -10" transform="rotate(-90,160,230)"/><path d="M 155 255v 10h 10a 10 10, 0, 0, 0, -10 -10" transform="rotate(90,160,260)"/><path d="M 155 275v 10h 10a 10 10, 0, 0, 0, -10 -10" transform="rotate(90,160,280)"/><path d="M 165 5v 10h 10a 10 10, 0, 0, 0, -10 -10" transform="rotate(90,170,10)"/><path d="M 165 25v 10h 10a 10 10, 0, 0, 0, -10 -10" transform="rotate(-90,170,30)"/><path d="M 165 35v 10h 10a 10 10, 0, 0, 0, -10 -10" transform="rotate(90,170,40)"/><path d="M 165 65v 5a 5 5, 0, 0, 0, 5 5h 5v -5a 5 5, 0, 0, 0, -5 -5" transform="rotate(90,170,70)"/><path d="M 165 125v 5a 5 5, 0, 0, 0, 5 5h 5v -5a 5 5, 0, 0, 0, -5 -5" transform="rotate(90,170,130)"/><rect x="165" y="145" width="10" height="10" transform="rotate(0,170,150)"/><path d="M 165 175v 10h 10a 10 10, 0, 0, 0, -10 -10" transform="rotate(90,170,180)"/><rect x="165" y="205" width="10" height="10" transform="rotate(0,170,210)"/><rect x="165" y="225" width="10" height="10" transform="rotate(0,170,230)"/><rect x="165" y="235" width="10" height="10" transform="rotate(0,170,240)"/><path d="M 175 15v 10h 10a 10 10, 0, 0, 0, -10 -10" transform="rotate(-90,180,20)"/><rect x="175" y="25" width="10" height="10" transform="rotate(0,180,30)"/><path d="M 175 45v 10h 10a 10 10, 0, 0, 0, -10 -10" transform="rotate(-90,180,50)"/><rect x="175" y="55" width="10" height="10" transform="rotate(0,180,60)"/><path d="M 175 75v 5a 5 5, 0, 0, 0, 5 5h 5v -5a 5 5, 0, 0, 0, -5 -5" transform="rotate(90,180,80)"/><path d="M 175 105v 10h 10a 10 10, 0, 0, 0, -10 -10" transform="rotate(-90,180,110)"/><rect x="175" y="115" width="10" height="10" transform="rotate(0,180,120)"/><rect x="175" y="145" width="10" height="10" transform="rotate(0,180,150)"/><path d="M 175 195v 10h 10a 10 10, 0, 0, 0, -10 -10" transform="rotate(-90,180,200)"/><rect x="175" y="205" width="10" height="10" transform="rotate(0,180,210)"/><rect x="175" y="225" width="10" height="10" transform="rotate(0,180,230)"/><path d="M 175 235v 10h 10a 10 10, 0, 0, 0, -10 -10" transform="rotate(90,180,240)"/><path d="M 175 285v 10h 10a 10 10, 0, 0, 0, -10 -10" transform="rotate(-90,180,290)"/><path d="M 185 5v 10h 10a 10 10, 0, 0, 0, -10 -10" transform="rotate(-90,190,10)"/><rect x="185" y="15" width="10" height="10" transform="rotate(0,190,20)"/><rect x="185" y="25" width="10" height="10" transform="rotate(0,190,30)"/><rect x="185" y="45" width="10" height="10" transform="rotate(0,190,50)"/><rect x="185" y="55" width="10" height="10" transform="rotate(0,190,60)"/><path d="M 185 65v 10h 10a 10 10, 0, 0, 0, -10 -10" transform="rotate(90,190,70)"/><rect x="185" y="115" width="10" height="10" transform="rotate(0,190,120)"/><path d="M 185 125v 10h 10a 10 10, 0, 0, 0, -10 -10" transform="rotate(90,190,130)"/><rect x="185" y="145" width="10" height="10" transform="rotate(0,190,150)"/><path d="M 185 155v 10h 10a 10 10, 0, 0, 0, -10 -10" transform="rotate(90,190,160)"/><path d="M 185 185v 10h 10a 10 10, 0, 0, 0, -10 -10" transform="rotate(-90,190,190)"/><rect x="185" y="195" width="10" height="10" transform="rotate(0,190,200)"/><path d="M 185 205v 10h 10a 10 10, 0, 0, 0, -10 -10" transform="rotate(90,190,210)"/><path d="M 185 245v 5a 5 5, 0, 0, 0, 5 5h 5v -5a 5 5, 0, 0, 0, -5 -5" transform="rotate(90,190,250)"/><rect x="185" y="285" width="10" height="10" transform="rotate(0,190,290)"/><rect x="195" y="25" width="10" height="10" transform="rotate(0,200,30)"/><rect x="195" y="35" width="10" height="10" transform="rotate(0,200,40)"/><path d="M 195 55v 10h 10a 10 10, 0, 0, 0, -10 -10" transform="rotate(90,200,60)"/><path d="M 195 75v 10h 10a 10 10, 0, 0, 0, -10 -10" transform="rotate(-90,200,80)"/><rect x="195" y="85" width="10" height="10" transform="rotate(0,200,90)"/><rect x="195" y="95" width="10" height="10" transform="rotate(0,200,100)"/><path d="M 195 105v 10h 10a 10 10, 0, 0, 0, -10 -10" transform="rotate(90,200,110)"/><path d="M 195 135v 10h 10a 10 10, 0, 0, 0, -10 -10" transform="rotate(-90,200,140)"/><rect x="195" y="195" width="10" height="10" transform="rotate(0,200,200)"/><path d="M 195 215v 10h 10a 10 10, 0, 0, 0, -10 -10" transform="rotate(-90,200,220)"/><rect x="195" y="225" width="10" height="10" transform="rotate(0,200,230)"/><path d="M 195 255v 10h 10a 10 10, 0, 0, 0, -10 -10" transform="rotate(-90,200,260)"/><path d="M 195 285v 10h 10a 10 10, 0, 0, 0, -10 -10" transform="rotate(90,200,290)"/><path d="M 205 5v 10h 10a 10 10, 0, 0, 0, -10 -10" transform="rotate(-90,210,10)"/><rect x="205" y="15" width="10" height="10" transform="rotate(0,210,20)"/><rect x="205" y="25" width="10" height="10" transform="rotate(0,210,30)"/><path d="M 205 35v 10h 10a 10 10, 0, 0, 0, -10 -10" transform="rotate(90,210,40)"/><path d="M 205 65v 10h 10a 10 10, 0, 0, 0, -10 -10" transform="rotate(-90,210,70)"/><path d="M 205 75v 10h 10a 10 10, 0, 0, 0, -10 -10" transform="rotate(90,210,80)"/><path d="M 205 95v 10h 10a 10 10, 0, 0, 0, -10 -10" transform="rotate(90,210,100)"/><path d="M 205 115v 10h 10a 10 10, 0, 0, 0, -10 -10" transform="rotate(-90,210,120)"/><rect x="205" y="125" width="10" height="10" transform="rotate(0,210,130)"/><path d="M 205 135v 10h 10a 10 10, 0, 0, 0, -10 -10" transform="rotate(90,210,140)"/><path d="M 205 155v 10h 10a 10 10, 0, 0, 0, -10 -10" transform="rotate(-90,210,160)"/><rect x="205" y="165" width="10" height="10" transform="rotate(0,210,170)"/><path d="M 205 185v 10h 10a 10 10, 0, 0, 0, -10 -10" transform="rotate(-90,210,190)"/><rect x="205" y="195" width="10" height="10" transform="rotate(0,210,200)"/><rect x="205" y="205" width="10" height="10" transform="rotate(0,210,210)"/><rect x="205" y="215" width="10" height="10" transform="rotate(0,210,220)"/><rect x="205" y="225" width="10" height="10" transform="rotate(0,210,230)"/><rect x="205" y="235" width="10" height="10" transform="rotate(0,210,240)"/><rect x="205" y="245" width="10" height="10" transform="rotate(0,210,250)"/><rect x="205" y="255" width="10" height="10" transform="rotate(0,210,260)"/><rect x="205" y="265" width="10" height="10" transform="rotate(0,210,270)"/><path d="M 205 275v 10h 10a 10 10, 0, 0, 0, -10 -10" transform="rotate(90,210,280)"/><path d="M 215 85v 5a 5 5, 0, 0, 0, 5 5h 5v -5a 5 5, 0, 0, 0, -5 -5" transform="rotate(90,220,90)"/><path d="M 215 105v 5a 5 5, 0, 0, 0, 5 5h 5v -5a 5 5, 0, 0, 0, -5 -5" transform="rotate(90,220,110)"/><rect x="215" y="155" width="10" height="10" transform="rotate(0,220,160)"/><path d="M 215 165v 10h 10a 10 10, 0, 0, 0, -10 -10" transform="rotate(90,220,170)"/><rect x="215" y="205" width="10" height="10" transform="rotate(0,220,210)"/><rect x="215" y="245" width="10" height="10" transform="rotate(0,220,250)"/><rect x="215" y="255" width="10" height="10" transform="rotate(0,220,260)"/><path d="M 215 285v 10h 10a 10 10, 0, 0, 0, -10 -10" transform="rotate(-90,220,290)"/><path d="M 225 95v 5a 5 5, 0, 0, 0, 5 5h 5v -5a 5 5, 0, 0, 0, -5 -5" transform="rotate(90,230,100)"/><path d="M 225 115v 5a 5 5, 0, 0, 0, 5 5h 5v -5a 5 5, 0, 0, 0, -5 -5" transform="rotate(90,230,120)"/><path d="M 225 135v 5a 5 5, 0, 0, 0, 5 5h 5v -5a 5 5, 0, 0, 0, -5 -5" transform="rotate(90,230,140)"/><rect x="225" y="155" width="10" height="10" transform="rotate(0,230,160)"/><path d="M 225 175v 10h 10a 10 10, 0, 0, 0, -10 -10" transform="rotate(-90,230,180)"/><rect x="225" y="185" width="10" height="10" transform="rotate(0,230,190)"/><rect x="225" y="205" width="10" height="10" transform="rotate(0,230,210)"/><path d="M 225 225v 5a 5 5, 0, 0, 0, 5 5h 5v -5a 5 5, 0, 0, 0, -5 -5" transform="rotate(90,230,230)"/><rect x="225" y="245" width="10" height="10" transform="rotate(0,230,250)"/><rect x="225" y="255" width="10" height="10" transform="rotate(0,230,260)"/><path d="M 225 265v 10h 10a 10 10, 0, 0, 0, -10 -10" transform="rotate(90,230,270)"/><rect x="225" y="285" width="10" height="10" transform="rotate(0,230,290)"/><path d="M 235 125v 10h 10a 10 10, 0, 0, 0, -10 -10" transform="rotate(-90,240,130)"/><path d="M 235 145v 10h 10a 10 10, 0, 0, 0, -10 -10" transform="rotate(-90,240,150)"/><rect x="235" y="155" width="10" height="10" transform="rotate(0,240,160)"/><rect x="235" y="185" width="10" height="10" transform="rotate(0,240,190)"/><rect x="235" y="195" width="10" height="10" transform="rotate(0,240,200)"/><rect x="235" y="205" width="10" height="10" transform="rotate(0,240,210)"/><rect x="235" y="245" width="10" height="10" transform="rotate(0,240,250)"/><path d="M 235 255v 10h 10a 10 10, 0, 0, 0, -10 -10" transform="rotate(90,240,260)"/><path d="M 235 275v 10h 10a 10 10, 0, 0, 0, -10 -10" transform="rotate(-90,240,280)"/><path d="M 235 285v 10h 10a 10 10, 0, 0, 0, -10 -10" transform="rotate(90,240,290)"/><path d="M 245 105v 5a 5 5, 0, 0, 0, 5 5h 5v -5a 5 5, 0, 0, 0, -5 -5" transform="rotate(90,250,110)"/><rect x="245" y="125" width="10" height="10" transform="rotate(0,250,130)"/><rect x="245" y="135" width="10" height="10" transform="rotate(0,250,140)"/><rect x="245" y="145" width="10" height="10" transform="rotate(0,250,150)"/><rect x="245" y="155" width="10" height="10" transform="rotate(0,250,160)"/><rect x="245" y="165" width="10" height="10" transform="rotate(0,250,170)"/><rect x="245" y="175" width="10" height="10" transform="rotate(0,250,180)"/><rect x="245" y="185" width="10" height="10" transform="rotate(0,250,190)"/><rect x="245" y="195" width="10" height="10" transform="rotate(0,250,200)"/><rect x="245" y="205" width="10" height="10" transform="rotate(0,250,210)"/><rect x="245" y="215" width="10" height="10" transform="rotate(0,250,220)"/><rect x="245" y="225" width="10" height="10" transform="rotate(0,250,230)"/><rect x="245" y="235" width="10" height="10" transform="rotate(0,250,240)"/><rect x="245" y="245" width="10" height="10" transform="rotate(0,250,250)"/><rect x="255" y="125" width="10" height="10" transform="rotate(0,260,130)"/><rect x="255" y="165" width="10" height="10" transform="rotate(0,260,170)"/><rect x="255" y="175" width="10" height="10" transform="rotate(0,260,180)"/><rect x="255" y="185" width="10" height="10" transform="rotate(0,260,190)"/><rect x="255" y="195" width="10" height="10" transform="rotate(0,260,200)"/><path d="M 255 205v 10h 10a 10 10, 0, 0, 0, -10 -10" transform="rotate(90,260,210)"/><rect x="255" y="235" width="10" height="10" transform="rotate(0,260,240)"/><rect x="255" y="245" width="10" height="10" transform="rotate(0,260,250)"/><path d="M 255 275v 10h 10a 10 10, 0, 0, 0, -10 -10" transform="rotate(-90,260,280)"/><path d="M 265 85v 10h 10a 10 10, 0, 0, 0, -10 -10" transform="rotate(-90,270,90)"/><path d="M 265 105v 10h 10a 10 10, 0, 0, 0, -10 -10" transform="rotate(-90,270,110)"/><rect x="265" y="125" width="10" height="10" transform="rotate(0,270,130)"/><rect x="265" y="165" width="10" height="10" transform="rotate(0,270,170)"/><path d="M 265 215v 5a 5 5, 0, 0, 0, 5 5h 5v -5a 5 5, 0, 0, 0, -5 -5" transform="rotate(90,270,220)"/><path d="M 265 245v 10h 10a 10 10, 0, 0, 0, -10 -10" transform="rotate(90,270,250)"/><rect x="265" y="275" width="10" height="10" transform="rotate(0,270,280)"/><path d="M 265 285v 10h 10a 10 10, 0, 0, 0, -10 -10" transform="rotate(90,270,290)"/><path d="M 275 85v 10h 10a 10 10, 0, 0, 0, -10 -10" transform="rotate(90,280,90)"/><rect x="275" y="105" width="10" height="10" transform="rotate(0,280,110)"/><rect x="275" y="115" width="10" height="10" transform="rotate(0,280,120)"/><path d="M 275 125v 10h 10a 10 10, 0, 0, 0, -10 -10" transform="rotate(90,280,130)"/><path d="M 275 145v 10h 10a 10 10, 0, 0, 0, -10 -10" transform="rotate(-90,280,150)"/><rect x="275" y="155" width="10" height="10" transform="rotate(0,280,160)"/><rect x="275" y="165" width="10" height="10" transform="rotate(0,280,170)"/><path d="M 275 195v 5a 5 5, 0, 0, 0, 5 5h 5v -5a 5 5, 0, 0, 0, -5 -5" transform="rotate(90,280,200)"/><path d="M 275 225v 5a 5 5, 0, 0, 0, 5 5h 5v -5a 5 5, 0, 0, 0, -5 -5" transform="rotate(90,280,230)"/><path d="M 275 255v 10h 10a 10 10, 0, 0, 0, -10 -10" transform="rotate(-90,280,260)"/><path d="M 285 115v 10h 10a 10 10, 0, 0, 0, -10 -10" transform="rotate(90,290,120)"/><path d="M 285 135v 5a 5 5, 0, 0, 0, 5 5h 5v -5a 5 5, 0, 0, 0, -5 -5" transform="rotate(90,290,140)"/><path d="M 285 165v 10h 10a 10 10, 0, 0, 0, -10 -10" transform="rotate(90,290,170)"/><path d="M 285 205v 10h 10a 10 10, 0, 0, 0, -10 -10" transform="rotate(-90,290,210)"/><path d="M 285 215v 10h 10a 10 10, 0, 0, 0, -10 -10" transform="rotate(90,290,220)"/><path d="M 285 235v 10h 10a 10 10, 0, 0, 0, -10 -10" transform="rotate(-90,290,240)"/><rect x="285" y="245" width="10" height="10" transform="rotate(0,290,250)"/><rect x="285" y="255" width="10" height="10" transform="rotate(0,290,260)"/><path d="M 285 265v 10h 10a 10 10, 0, 0, 0, -10 -10" transform="rotate(90,290,270)"/><path d="M 285 285v 5a 5 5, 0, 0, 0, 5 5h 5v -5a 5 5, 0, 0, 0, -5 -5" transform="rotate(90,290,290)"/></g><g class="corners-square-color-0-0"><path d="M 5 5v 10h 10a 10 10, 0, 0, 0, -10 -10" transform="rotate(-90,10,10)"/><rect x="5" y="15" width="10" height="10" transform="rotate(0,10,20)"/><rect x="5" y="25" width="10" height="10" transform="rotate(0,10,30)"/><rect x="5" y="35" width="10" height="10" transform="rotate(0,10,40)"/><rect x="5" y="45" width="10" height="10" transform="rotate(0,10,50)"/><rect x="5" y="55" width="10" height="10" transform="rotate(0,10,60)"/><rect x="5" y="65" width="10" height="10" transform="rotate(0,10,70)"/><rect x="15" y="5" width="10" height="10" transform="rotate(0,20,10)"/><rect x="15" y="65" width="10" height="10" transform="rotate(0,20,70)"/><rect x="25" y="5" width="10" height="10" transform="rotate(0,30,10)"/><rect x="25" y="65" width="10" height="10" transform="rotate(0,30,70)"/><rect x="35" y="5" width="10" height="10" transform="rotate(0,40,10)"/><rect x="35" y="65" width="10" height="10" transform="rotate(0,40,70)"/><rect x="45" y="5" width="10" height="10" transform="rotate(0,50,10)"/><rect x="45" y="65" width="10" height="10" transform="rotate(0,50,70)"/><rect x="55" y="5" width="10" height="10" transform="rotate(0,60,10)"/><rect x="55" y="65" width="10" height="10" transform="rotate(0,60,70)"/><rect x="65" y="5" width="10" height="10" transform="rotate(0,70,10)"/><rect x="65" y="15" width="10" height="10" transform="rotate(0,70,20)"/><rect x="65" y="25" width="10" height="10" transform="rotate(0,70,30)"/><rect x="65" y="35" width="10" height="10" transform="rotate(0,70,40)"/><rect x="65" y="45" width="10" height="10" transform="rotate(0,70,50)"/><rect x="65" y="55" width="10" height="10" transform="rotate(0,70,60)"/><path d="M 65 65v 10h 10a 10 10, 0, 0, 0, -10 -10" transform="rotate(90,70,70)"/></g><g class="corners-dot-color-0-0"><path d="M 25 25v 10h 10a 10 10, 0, 0, 0, -10 -10" transform="rotate(-90,30,30)"/><rect x="25" y="35" width="10" height="10" transform="rotate(0,30,40)"/><rect x="25" y="45" width="10" height="10" transform="rotate(0,30,50)"/><rect x="35" y="25" width="10" height="10" transform="rotate(0,40,30)"/><rect x="35" y="35" width="10" height="10" transform="rotate(0,40,40)"/><rect x="35" y="45" width="10" height="10" transform="rotate(0,40,50)"/><rect x="45" y="25" width="10" height="10" transform="rotate(0,50,30)"/><rect x="45" y="35" width="10" height="10" transform="rotate(0,50,40)"/><path d="M 45 45v 10h 10a 10 10, 0, 0, 0, -10 -10" transform="rotate(90,50,50)"/></g><g class="corners-square-color-1-0"><path d="M 225 5v 10h 10a 10 10, 0, 0, 0, -10 -10" transform="rotate(-90,230,10)"/><rect x="225" y="15" width="10" height="10" transform="rotate(0,230,20)"/><rect x="225" y="25" width="10" height="10" transform="rotate(0,230,30)"/><rect x="225" y="35" width="10" height="10" transform="rotate(0,230,40)"/><rect x="225" y="45" width="10" height="10" transform="rotate(0,230,50)"/><rect x="225" y="55" width="10" height="10" transform="rotate(0,230,60)"/><rect x="225" y="65" width="10" height="10" transform="rotate(0,230,70)"/><rect x="235" y="5" width="10" height="10" transform="rotate(0,240,10)"/><rect x="235" y="65" width="10" height="10" transform="rotate(0,240,70)"/><rect x="245" y="5" width="10" height="10" transform="rotate(0,250,10)"/><rect x="245" y="65" width="10" height="10" transform="rotate(0,250,70)"/><rect x="255" y="5" width="10" height="10" transform="rotate(0,260,10)"/><rect x="255" y="65" width="10" height="10" transform="rotate(0,260,70)"/><rect x="265" y="5" width="10" height="10" transform="rotate(0,270,10)"/><rect x="265" y="65" width="10" height="10" transform="rotate(0,270,70)"/><rect x="275" y="5" width="10" height="10" transform="rotate(0,280,10)"/><rect x="275" y="65" width="10" height="10" transform="rotate(0,280,70)"/><rect x="285" y="5" width="10" height="10" transform="rotate(0,290,10)"/><rect x="285" y="15" width="10" height="10" transform="rotate(0,290,20)"/><rect x="285" y="25" width="10" height="10" transform="rotate(0,290,30)"/><rect x="285" y="35" width="10" height="10" transform="rotate(0,290,40)"/><rect x="285" y="45" width="10" height="10" transform="rotate(0,290,50)"/><rect x="285" y="55" width="10" height="10" transform="rotate(0,290,60)"/><path d="M 285 65v 10h 10a 10 10, 0, 0, 0, -10 -10" transform="rotate(90,290,70)"/></g><g class="corners-dot-color-1-0"><path d="M 245 25v 10h 10a 10 10, 0, 0, 0, -10 -10" transform="rotate(-90,250,30)"/><rect x="245" y="35" width="10" height="10" transform="rotate(0,250,40)"/><rect x="245" y="45" width="10" height="10" transform="rotate(0,250,50)"/><rect x="255" y="25" width="10" height="10" transform="rotate(0,260,30)"/><rect x="255" y="35" width="10" height="10" transform="rotate(0,260,40)"/><rect x="255" y="45" width="10" height="10" transform="rotate(0,260,50)"/><rect x="265" y="25" width="10" height="10" transform="rotate(0,270,30)"/><rect x="265" y="35" width="10" height="10" transform="rotate(0,270,40)"/><path d="M 265 45v 10h 10a 10 10, 0, 0, 0, -10 -10" transform="rotate(90,270,50)"/></g><g class="corners-square-color-0-1"><path d="M 5 225v 10h 10a 10 10, 0, 0, 0, -10 -10" transform="rotate(-90,10,230)"/><rect x="5" y="235" width="10" height="10" transform="rotate(0,10,240)"/><rect x="5" y="245" width="10" height="10" transform="rotate(0,10,250)"/><rect x="5" y="255" width="10" height="10" transform="rotate(0,10,260)"/><rect x="5" y="265" width="10" height="10" transform="rotate(0,10,270)"/><rect x="5" y="275" width="10" height="10" transform="rotate(0,10,280)"/><rect x="5" y="285" width="10" height="10" transform="rotate(0,10,290)"/><rect x="15" y="225" width="10" height="10" transform="rotate(0,20,230)"/><rect x="15" y="285" width="10" height="10" transform="rotate(0,20,290)"/><rect x="25" y="225" width="10" height="10" transform="rotate(0,30,230)"/><rect x="25" y="285" width="10" height="10" transform="rotate(0,30,290)"/><rect x="35" y="225" width="10" height="10" transform="rotate(0,40,230)"/><rect x="35" y="285" width="10" height="10" transform="rotate(0,40,290)"/><rect x="45" y="225" width="10" height="10" transform="rotate(0,50,230)"/><rect x="45" y="285" width="10" height="10" transform="rotate(0,50,290)"/><rect x="55" y="225" width="10" height="10" transform="rotate(0,60,230)"/><rect x="55" y="285" width="10" height="10" transform="rotate(0,60,290)"/><rect x="65" y="225" width="10" height="10" transform="rotate(0,70,230)"/><rect x="65" y="235" width="10" height="10" transform="rotate(0,70,240)"/><rect x="65" y="245" width="10" height="10" transform="rotate(0,70,250)"/><rect x="65" y="255" width="10" height="10" transform="rotate(0,70,260)"/><rect x="65" y="265" width="10" height="10" transform="rotate(0,70,270)"/><rect x="65" y="275" width="10" height="10" transform="rotate(0,70,280)"/><path d="M 65 285v 10h 10a 10 10, 0, 0, 0, -10 -10" transform="rotate(90,70,290)"/></g><g class="corners-dot-color-0-1"><path d="M 25 245v 10h 10a 10 10, 0, 0, 0, -10 -10" transform="rotate(-90,30,250)"/><rect x="25" y="255" width="10" height="10" transform="rotate(0,30,260)"/><rect x="25" y="265" width="10" height="10" transform="rotate(0,30,270)"/><rect x="35" y="245" width="10" height="10" transform="rotate(0,40,250)"/><rect x="35" y="255" width="10" height="10" transform="rotate(0,40,260)"/><rect x="35" y="265" width="10" height="10" transform="rotate(0,40,270)"/><rect x="45" y="245" width="10" height="10" transform="rotate(0,50,250)"/><rect x="45" y="255" width="10" height="10" transform="rotate(0,50,260)"/><path d="M 45 265v 10h 10a 10 10, 0, 0, 0, -10 -10" transform="rotate(90,50,270)"/></g></svg></g></svg></svg>